<?xml version="1.0" encoding="utf-8"?>
<!-- Generator: Adobe Illustrator 24.3.0, SVG Export Plug-In . SVG Version: 6.00 Build 0)  -->
<svg version="1.1" id="Capa_1" xmlns="http://www.w3.org/2000/svg" xmlns:xlink="http://www.w3.org/1999/xlink" x="0px" y="0px"
	 viewBox="0 0 162 33" style="enable-background:new 0 0 162 33;" xml:space="preserve">
<style type="text/css">
	.st0{fill-rule:evenodd;clip-rule:evenodd;fill:#FFFFFF;}
	.st1{fill:#FFFFFF;}
</style>
<path class="st0" d="M4.5,0.9c-2.3,0-4.2,1.9-4.2,4.2l0,27l27.1,0c2.3,0,4.2-1.9,4.2-4.2l0-27L4.5,0.9z M24.4,23.4l-16.7,3l0-16.8
	l16.7-3L24.4,23.4L24.4,23.4z"/>
<g>
	<path class="st1" d="M85.3,7.9c-4.9,0-8.4,3.5-8.4,9.3c0,5.2,4.2,8.5,8.5,8.5c2.5,0,4.1-0.4,5-1.1l0-2.9c-1.3,0.6-2.9,0.8-4.2,0.8
		c-2.6,0-4.8-1.4-5.1-3.7l0-0.2l3.1,0c2.9,0,4.9-0.3,6.2-0.9c1.3-0.6,1.8-1.6,1.9-3.2C92.1,10.4,88.9,7.9,85.3,7.9z M87.3,15.5
		c-0.8,0.3-2.1,0.4-4.2,0.4l-2.1,0l0-0.2l0-0.6c0.1-2.1,1.6-3.9,3.9-3.9c1,0,1.9,0.2,2.5,0.7c0.6,0.5,1,1.2,1,2.1
		C88.4,14.7,88.1,15.2,87.3,15.5z M94.3,14.6l0,10.9l4,0l0-10.1c0-1.3,0.3-2.3,0.8-3c0.6-0.6,1.4-0.9,2.4-0.9c0.4,0,0.8,0,1.1,0.1
		l0-3.2c-0.5-0.3-1.2-0.4-2-0.4C96.1,7.9,94.3,11.1,94.3,14.6z M41.1,3.5l0,21.9l4,0l0-21.9L41.1,3.5z M56,7.9
		c-5.4,0-7.7,3.7-7.8,7.3l0,10.2l4,0l0-9.9c0-1.3,0.3-2.3,0.9-3c0.6-0.7,1.5-1.1,2.4-1.1c1.2,0,2.1,0.3,2.8,1.1c0.6,0.7,1,1.9,1,3.3
		l0,9.6l4,0l0-10C63.4,10.6,60.1,7.9,56,7.9z M70.5,3.5l-4,0l0,15.8c0,4,2,6.4,6.4,6.4c1.9,0,3-0.6,3.4-1.6l0-2.5
		c-0.7,0.3-1.7,0.5-2.9,0.5c-0.9,0-1.7-0.2-2.2-0.8c-0.5-0.5-0.8-1.4-0.8-2.5l0-7.4l3.5,0c1.7,0,2.4-1.1,2.4-1.9l0-1.6l-5.9,0
		L70.5,3.5z"/>
	<path class="st1" d="M136.3,14.1l0.2,10.8l4-0.1l-0.2-10.1c0-1.3,0.2-2.3,0.8-3s1.4-1,2.4-1c0.4,0,0.8,0,1.1,0.1l-0.1-3.2
		c-0.5-0.2-1.2-0.4-2.1-0.4C138,7.4,136.3,10.6,136.3,14.1z"/>
	<path class="st1" d="M126.3,7.6c-5.3,0.1-8,4.3-7.9,9.4c0.1,4.5,3,8.3,7.9,8.2c5.3-0.1,8-4,7.9-9.2C134.1,11.6,131.2,7.5,126.3,7.6
		z M126.6,21.6c-2.8,0.1-4.1-1.8-4.1-5.3c-0.1-2.9,1.1-5,3.5-5.1c2.8-0.1,4.1,2,4.1,5.5C130.2,19.7,129,21.6,126.6,21.6z"/>
	<path class="st1" d="M108.2,17.9l0,0.2c0.4,2.3,2.2,4.3,4.9,4.2c1.4,0,2.9-0.3,4.2-0.9l0.1,2.7c-0.9,0.8-2.5,1.6-5,1.6
		c-4.3,0.1-8.6-3.1-8.7-8.3c-0.1-5.7,3.4-9.4,8.3-9.5c0,0,0,0,0,0c0,0,0,0,0,0c2.5-0.1,4.1,0.6,5.1,1.4l0.1,2.8
		c-1.3-0.6-2.9-0.8-4.2-0.8c-2.6,0.1-4.4,2.1-4.7,4.4C108,16.9,108.2,17.9,108.2,17.9z"/>
	<path class="st1" d="M154,7.2c-5.8,0.1-8.2,4.1-8.1,9.9l0.2,9.6c0,1.9,1.5,2.9,2.9,2.9l1.3,0c0,0-0.1-4.4-0.2-6.8
		c0.9,1.5,2.4,2.3,4.2,2.2c4.8-0.1,7.4-3.9,7.2-9.5C161.6,11.2,158.4,7.1,154,7.2z M154.2,21.4c-2.5,0.1-4.1-1.9-4.2-5.3
		c-0.1-3,1.1-5,3.4-5.1c2.6-0.1,4,1.7,4.1,5.7C157.6,19.5,156.2,21.4,154.2,21.4z"/>
</g>
</svg>
