<?xml version="1.0" encoding="utf-8"?>
<!-- Generator: Adobe Illustrator 24.3.0, SVG Export Plug-In . SVG Version: 6.00 Build 0)  -->
<svg version="1.1" id="Capa_1" xmlns="http://www.w3.org/2000/svg" xmlns:xlink="http://www.w3.org/1999/xlink" x="0px" y="0px"
	 viewBox="0 0 120.4 31.2" style="enable-background:new 0 0 120.4 31.2;" xml:space="preserve">
<style type="text/css">
	.st0{fill:#BDBDBD;}
</style>
<g>
	<path class="st0" d="M44.2,7c-4.9,0-8.4,3.5-8.4,9.3c0,5.2,4.2,8.5,8.5,8.5c2.5,0,4.1-0.4,5-1.1v-2.9c-1.3,0.6-2.9,0.8-4.2,0.8
		c-2.6,0-4.8-1.4-5.1-3.7v-0.2h3.1c2.9,0,4.9-0.3,6.2-0.9s1.8-1.6,1.9-3.2C51,9.5,47.8,7,44.2,7z M46.2,14.6
		C45.4,14.9,44.1,15,42,15h-2.1v-0.2v-0.6c0.1-2.1,1.6-3.9,3.9-3.9c1,0,1.9,0.2,2.5,0.7s1,1.2,1,2.1C47.3,13.8,47,14.3,46.2,14.6z
		 M53.2,13.7v10.9h4V14.5c0-1.3,0.3-2.3,0.8-3c0.6-0.6,1.4-0.9,2.4-0.9c0.4,0,0.8,0,1.1,0.1V7.5c-0.5-0.3-1.2-0.4-2-0.4
		C55,7,53.2,10.2,53.2,13.7z M0,2.6v21.9h4V2.6H0z M14.9,7c-5.4,0-7.7,3.7-7.8,7.3v10.2h4v-9.9c0-1.3,0.3-2.3,0.9-3
		c0.6-0.7,1.5-1.1,2.4-1.1c1.2,0,2.1,0.3,2.8,1.1c0.6,0.7,1,1.9,1,3.3v9.6h4v-10C22.3,9.7,19,7,14.9,7z M29.4,2.6h-4v15.8
		c0,4,2,6.4,6.4,6.4c1.9,0,3-0.6,3.4-1.6v-2.5c-0.7,0.3-1.7,0.5-2.9,0.5c-0.9,0-1.7-0.2-2.2-0.8c-0.5-0.5-0.8-1.4-0.8-2.5v-7.4h3.5
		c1.7,0,2.4-1.1,2.4-1.9V7h-5.9L29.4,2.6z"/>
	<path class="st0" d="M95.2,13.2L95.4,24l4-0.1l-0.2-10.1c0-1.3,0.2-2.3,0.8-3s1.4-1,2.4-1c0.4,0,0.8,0,1.1,0.1l-0.1-3.2
		c-0.5-0.2-1.2-0.4-2.1-0.4C96.9,6.5,95.2,9.7,95.2,13.2z"/>
	<path class="st0" d="M85.2,6.7c-5.3,0.1-8,4.3-7.9,9.4c0.1,4.5,3,8.3,7.9,8.2c5.3-0.1,8-4,7.9-9.2C93,10.7,90.1,6.6,85.2,6.7z
		 M85.5,20.7c-2.8,0.1-4.1-1.8-4.1-5.3c-0.1-2.9,1.1-5,3.5-5.1c2.8-0.1,4.1,2,4.1,5.5C89.1,18.8,87.9,20.7,85.5,20.7z"/>
	<path class="st0" d="M67.1,17v0.2c0.4,2.3,2.2,4.3,4.9,4.2c1.4,0,2.9-0.3,4.2-0.9l0.1,2.7c-0.9,0.8-2.5,1.6-5,1.6
		c-4.3,0.1-8.6-3.1-8.7-8.3C62.5,10.8,66,7.1,70.9,7l0,0l0,0C73.4,6.9,75,7.6,76,8.4l0.1,2.8c-1.3-0.6-2.9-0.8-4.2-0.8
		c-2.6,0.1-4.4,2.1-4.7,4.4C66.9,16,67.1,17,67.1,17z"/>
	<path class="st0" d="M112.9,6.3c-5.8,0.1-8.2,4.1-8.1,9.9l0.2,9.6c0,1.9,1.5,2.9,2.9,2.9h1.3c0,0-0.1-4.4-0.2-6.8
		c0.9,1.5,2.4,2.3,4.2,2.2c4.8-0.1,7.4-3.9,7.2-9.5C120.5,10.3,117.3,6.2,112.9,6.3z M113.1,20.5c-2.5,0.1-4.1-1.9-4.2-5.3
		c-0.1-3,1.1-5,3.4-5.1c2.6-0.1,4,1.7,4.1,5.7C116.5,18.6,115.1,20.5,113.1,20.5z"/>
</g>
</svg>
