<?xml version="1.0" standalone="no"?>
<!DOCTYPE svg PUBLIC "-//W3C//DTD SVG 20010904//EN"
 "http://www.w3.org/TR/2001/REC-SVG-20010904/DTD/svg10.dtd">
<svg version="1.0" xmlns="http://www.w3.org/2000/svg"
 width="700.000000pt" height="700.000000pt" viewBox="0 0 700.000000 700.000000"
 preserveAspectRatio="xMidYMid meet">
<metadata>
Created by potrace 1.11, written by Peter Selinger 2001-2013
</metadata>
<g transform="translate(0.000000,700.000000) scale(0.100000,-0.100000)"
fill="#000000" stroke="none">
<path d="M975 6842 c-321 -29 -606 -233 -741 -528 -18 -41 -36 -84 -38 -97 -2
-12 -9 -33 -14 -47 -5 -14 -10 -28 -10 -33 0 -4 -4 -35 -8 -70 -10 -78 -13
-5888 -3 -5902 8 -12 5823 -13 5904 -1 327 47 600 261 715 559 68 175 63 -81
64 3165 1 1619 -1 2947 -4 2951 -5 6 -5797 10 -5865 3z m4310 -3020 c0 -977
-3 -1784 -7 -1793 -4 -10 -26 -19 -55 -23 -26 -4 -55 -9 -63 -11 -8 -1 -33 -6
-55 -9 -22 -4 -47 -8 -55 -11 -8 -2 -33 -6 -55 -10 -22 -3 -87 -14 -145 -25
-130 -24 -139 -25 -280 -51 -139 -24 -141 -25 -210 -39 -30 -6 -71 -13 -90
-16 -19 -3 -132 -23 -250 -44 -118 -22 -231 -42 -250 -45 -19 -3 -42 -8 -50
-10 -8 -2 -31 -7 -50 -10 -31 -5 -157 -28 -215 -39 -11 -2 -40 -7 -65 -11 -25
-4 -54 -9 -65 -11 -11 -2 -130 -24 -265 -49 -135 -24 -258 -47 -275 -50 -16
-3 -43 -7 -60 -10 -16 -3 -41 -8 -55 -10 -49 -10 -77 -15 -220 -41 -149 -26
-332 -59 -385 -69 -111 -21 -304 -55 -325 -57 l-24 -3 -1 1788 c0 1186 3 1791
10 1795 5 4 15 7 20 8 6 1 135 25 288 53 153 28 299 53 325 57 26 3 49 8 52 9
3 2 46 11 95 19 87 15 111 20 165 31 14 2 41 7 60 10 19 3 118 21 220 40 102
19 201 37 220 40 51 9 301 54 330 60 14 3 41 8 60 11 19 3 141 25 270 49 129
24 253 46 275 49 22 4 72 13 110 21 39 7 87 16 107 19 20 3 110 19 200 35 192
36 214 39 253 46 17 3 66 12 110 21 44 8 94 17 110 20 17 2 86 15 155 28 69
13 127 22 129 19 3 -2 5 -803 6 -1781z"/>
</g>
</svg>
